# xmcd
#
# Track frame offsets: 
#        150
#        21174
#        41855
#        60874
#        82149
#        105236
#        121704
#        140463
#        159817
#        179406
#        195965
#        207720
#        224829
#        244518
#        264158
#
# Disc length: 3789 seconds
#
# Revision: 0
# Processed by: cddbd v1.5.2PL0 Copyright (c) Steve Scherf et al.
# Submitted via: ExactAudioCopy v1.0b1
#
DISCID=c90ecb0f
DTITLE=Gladys del Pilar - Waiting for a miracle
DYEAR=2011
DGENRE=Gospel
TTITLE0=How I got over
TTITLE1=Waiting for a miracle
TTITLE2=(Your love keeps lifting me) Higher and higher
TTITLE3=I believe in You
TTITLE4=Light of my day (feat. Frank Ådahl)
TTITLE5=There is no place
TTITLE6=Lord I want to be like Jesus
TTITLE7=I need thee every hour
TTITLE8=Jesus I'll never forget
TTITLE9=Att lämna allt
TTITLE10=Pass me not
TTITLE11=You bring the sun out
TTITLE12=I understand (feat. Frank Ådahl)
TTITLE13=Just for me
TTITLE14=Everything
EXTD=
EXTT0=
EXTT1=
EXTT2=
EXTT3=
EXTT4=
EXTT5=
EXTT6=
EXTT7=
EXTT8=
EXTT9=
EXTT10=
EXTT11=
EXTT12=
EXTT13=
EXTT14=
PLAYORDER=
